<?xml version="1.0" standalone="no"?>
<!DOCTYPE svg PUBLIC "-//W3C//DTD SVG 1.1//EN" "http://www.w3.org/Graphics/SVG/1.1/DTD/svg11.dtd">
<svg width="220px" height="60px" viewBox="0 0 220 60" xmlns="http://www.w3.org/2000/svg" xmlns:xlink="http://www.w3.org/1999/xlink" version="1.1">
	
	<style>
		<![CDATA[
		circle, line, rect, path {
			fill: none;
			stroke: #000;
			stroke-width: 5;
			stroke-linecap: round;
			stroke-linejoin: round;
		}
		]]>
	</style>
	
	<path style="stroke: #e5c100;"
				d="M 5 30
					 H 15
					 M 45 30
					 H 55
					 M 30 5
					 V 15
					 M 30 45
					 V 55
					 
					 M 17.5 8.35
					 L 22.5 17
					 M 42.5 51.65
					 L 37.5 43
					 
					 M 8.35 17.5
					 L 17 22.5
					 M 51.65 42.5
					 L 43 37.5
					 
					 M 42.5 8.35
					 L 37.5 17
					 M 17.5 51.65
					 L 22.5 43
					 
					 M 8.35 42.5
					 L 17 37.5
					 M 51.65 17.5
					 L 43 22.5" />
	
	<path style="stroke: #880000;"
				d="M 85 5
					 L 135 55
					 M 135 5
					 L 85 55"/>
	
	<path style="stroke: #008800;"
				d="M 215 5
					 L 190 55
					 L 165 30"/>
	
</svg>