<?xml version="1.0" standalone="no"?>
<!DOCTYPE svg PUBLIC "-//W3C//DTD SVG 1.1//EN" "http://www.w3.org/Graphics/SVG/1.1/DTD/svg11.dtd">
<svg width="2120px" height="160px" viewBox="0 0 2120 160" xmlns="http://www.w3.org/2000/svg" xmlns:xlink="http://www.w3.org/1999/xlink" version="1.1">
	
	<style>
		<![CDATA[
		* {
			fill: none;
			stroke: #008800;
			stroke-width: 1;
			stroke-linecap: round;
			stroke-linejoin: round;
		}
		]]>
	</style>
	
	<defs>
		<g id="c01">
			<circle cx="0"  cy="0"  r="25" />
			<path d="M -25 0 H 25 M 0 -25 V 25" />
		</g>
		<g id="c02">
			<use xlink:href="#c01" x="0" y="0" />
			<path d="M -17.677 -17.677 H 17.677 M -17.677 17.677 H 17.677" />
		</g>
		<g id="c03">
			<use xlink:href="#c01" x="0" y="0" />
			<path d="M -25 0 L 0 -12.5 L 25 0" />
		</g>
		<g id="c04">
			<use xlink:href="#c01" x="0" y="0" />
			<path d="M -12.5 0 L 0 25 L 12.5 0" />
		</g>
		<g id="c05">
			<use xlink:href="#c01" x="0" y="0" />
			<path d="M -12.5 0 L -17.677 -17.677 H 17.677 L 12.5 0" />
		</g>
		<g id="c06">
			<use xlink:href="#c01" x="0" y="0" />
			<path d="M -17.677 -17.677 H 17.677 L 0 25 z" />
		</g>
		<g id="c07">
			<use xlink:href="#c01" x="0" y="0" />
			<path d="M -25 0 L 0 -25 M 0 25 L 25 0 M -12.5 -12.5 L 12.5 12.5" />
		</g>
		<g id="c08">
			<use xlink:href="#c01" x="0" y="0" />
			<path d="M -12.5 -12.5 H 12.5 V 12.5 H -12.5 z" />
		</g>
		<g id="c09">
			<use xlink:href="#c01" x="0" y="0" />
			<path d="M -17.677 -17.677 H 17.677 V 17.677 H -17.677 z" />
		</g>
		<g id="c10">
			<use xlink:href="#c01" x="0" y="0" />
			<path d="M -12.5 0 L 0 -12.5 L 12.5 0 L 0 12.5 z" />
		</g>
		<g id="c11">
			<use xlink:href="#c01" x="0" y="0" />
			<path d="M -25 0 L 0 -25 L 25 0 L 0 25 z" />
		</g>
		<g id="c12">
			<use xlink:href="#c01" x="0" y="0" />
			<path d="M -25 0 L 0 -12.5 L 25 0 L 0 12.5 z" />
		</g>
		<g id="c13">
			<use xlink:href="#c01" x="0" y="0" />
			<path d="M -12.5 0 V -12.5 H 0 M 0 12.5 H 12.5 V 0 M -12.5 -12.5 L 12.5 12.5" />
		</g>
		<g id="c14">
			<use xlink:href="#c01" x="0" y="0" />
			<path d="M -17.677 -17.677 L 0 0 L 17.677 -17.677 L 0 25 z" />
		</g>
		<g id="c15">
			<use xlink:href="#c01" x="0" y="0" />
			<path d="M -17.677 -17.677 L 0 0 L 17.677 -17.677 L 12.5 0 L 0 12.5 L -12.5 0 z" />
		</g>
		<g id="c16">
			<use xlink:href="#c01" x="0" y="0" />
			<path d="M -17.677 -17.677 H 17.677 L 12.5 0 L 0 12.5 L -12.5 0 z" />
		</g>
		<g id="c17">
			<use xlink:href="#c01" x="0" y="0" />
			<path d="M -12.5 0 L -17.677 -17.677 H 17.677 L 12.5 0 L 17.677 17.677 H -17.677 L -12.5 0 z" />
		</g>
		<g id="c18">
			<use xlink:href="#c01" x="0" y="0" />
			<path d="M -17.677 -17.677 H 17.677 L -17.677 17.677 H 17.677 z" />
		</g>
		<g id="c19">
			<use xlink:href="#c01" x="0" y="0" />
			<path d="M -25 0 L 0 -12.5 L 25 0" />
			<path d="M -17.677 -17.677 H 17.677 M -17.677 17.677 H 17.677" />
		</g>
		<g id="c20">
			<use xlink:href="#c01" x="0" y="0" />
			<path d="M -25 0 L 0 -12.5 L 25 0" />
			<path d="M -12.5 0 L 0 25 L 12.5 0" />
		</g>
		<g id="c21">
			<use xlink:href="#c01" x="0" y="0" />
			<path d="M -17.677 -17.677 H 17.677 M -17.677 17.677 H 17.677" />
			<path d="M -12.5 0 V -12.5 H 0 M 0 12.5 H 12.5 V 0 M -12.5 -12.5 L 12.5 12.5" />
		</g>
		<g id="c22">
			<use xlink:href="#c01" x="0" y="0" />
			<path d="M -25 0 L 0 -12.5 L 25 0 L 0 12.5 z" />
			<path d="M -12.5 0 L 0 -12.5 L 12.5 0 L 0 12.5 z" />
		</g>
		<g id="c23">
			<use xlink:href="#c01" x="0" y="0" />
			<path d="M -25 0 L 0 -25 L 25 0 L 0 25 z" />
			<path d="M -25 0 L 0 -12.5 L 25 0 L 0 12.5 z" />
		</g>
		<g id="c24">
			<use xlink:href="#c01" x="0" y="0" />
			<path d="M -25 0 L 0 -25 L 25 0 L 0 25 z" />
			<path d="M -12.5 -12.5 H 12.5 V 12.5 H -12.5 z" />
		</g>
		<g id="c25">
			<use xlink:href="#c01" x="0" y="0" />
			<path d="M -12.5 -12.5 H 12.5 V 12.5 H -12.5 z" />
			<path d="M -17.677 -17.677 H 17.677 V 17.677 H -17.677 z" />
		</g>
		<g id="c26">
			<use xlink:href="#c01" x="0" y="0" />
			<path d="M -12.5 -12.5 H 12.5 V 12.5 H -12.5 z" />
			<path d="M -12.5 0 L 0 -12.5 L 12.5 0 L 0 12.5 z" />
		</g>
		<g id="c27">
			<use xlink:href="#c01" x="0" y="0" />
			<path d="M -12.5 0 L 0 -12.5 L 12.5 0 L 0 12.5 z" />
			<path d="M -17.677 -17.677 H 17.677 V 17.677 H -17.677 z" />
		</g>
		<g id="c28">
			<use xlink:href="#c01" x="0" y="0" />
			<path d="M -25 0 L 0 -25 L 25 0 L 0 25 z" />
			<path d="M -12.5 0 L 0 -12.5 L 12.5 0 L 0 12.5 z" />
		</g>
		<g id="c29">
			<use xlink:href="#c01" x="0" y="0" />
			<path d="M -25 0 L 0 -25 L 25 0 L 0 25 z" />
			<path d="M -12.5 0 V -12.5 H 0 M 0 12.5 H 12.5 V 0 M -12.5 -12.5 L 12.5 12.5" />
		</g>
		<g id="c30">
			<use xlink:href="#c01" x="0" y="0" />
			<path d="M -12.5 0 L 0 -12.5 L 12.5 0 L 0 12.5 z" />
			<path d="M -12.5 0 L -17.677 -17.677 H 17.677 L 12.5 0 L 17.677 17.677 H -17.677 L -12.5 0 z" />
		</g>
		
		<g id="r01">
			<rect x="-25" y="-25" width="50" height="50" />
		</g>
		<g id="r02">
			<use xlink:href="#r01" x="0" y="0" />
			<path d="M -25 -25 L 25 25" />
		</g>
		<g id="r03">
			<use xlink:href="#r01" x="0" y="0" />
			<path d="M -25 -25 L 25 25 M 25 -25 L -25 25" />
		</g>
		<g id="r04">
			<use xlink:href="#r01" x="0" y="0" />
			<path d="M -12.5 -25 L 0 0 L 12.5 -25" />
		</g>
		<g id="r05">
			<use xlink:href="#r01" x="0" y="0" />
			<path d="M -25 -25 L 0 25 L 25 -25" />
		</g>
		<g id="r06">
			<use xlink:href="#r01" x="0" y="0" />
			<path d="M -25 0 L 0 25 L 25 0" />
		</g>
		<g id="r07">
			<use xlink:href="#r01" x="0" y="0" />
			<path d="M -25 -25 L 25 -12.5 M -25 12.5 L 25 25" />
		</g>
		<g id="r08">
			<use xlink:href="#r01" x="0" y="0" />
			<path d="M -25 -12.5 L 25 12.5 M -25 12.5 L 25 -12.5" />
		</g>
		<g id="r09">
			<use xlink:href="#r01" x="0" y="0" />
			<path d="M -25 25 A 25 25 180 1 1 25 25" />
		</g>
		<g id="r10">
			<use xlink:href="#r01" x="0" y="0" />
			<path d="M -25 -25 A 12.5 25 180 1 1 -25 25 M 25 -25 A 12.5 25 180 1 0 25 25" />
		</g>
		<g id="r11">
			<use xlink:href="#r01" x="0" y="0" />
			<path d="M -12.5 -25 V 25 M 12.5 -25 V 25" />
		</g>
		<g id="r12">
			<use xlink:href="#r01" x="0" y="0" />
			<path d="M -12.5 -25 V 25 M 0 -25 V 25 M 12.5 -25 V 25" />
		</g>
		<g id="r13">
			<use xlink:href="#r01" x="0" y="0" />
			<path d="M -25 0 L 0 25 M -25 -25 L 25 25 M 0 -25 L 25 0" />
		</g>
		<g id="r14">
			<use xlink:href="#r01" x="0" y="0" />
			<path d="M -25 -25 L 25 -12.5 M -25 -12.5 25 0 M -25 0 25 12.5 M -25 12.5 L 25 25" />
		</g>
		<g id="r15">
			<use xlink:href="#r01" x="0" y="0" />
			<path d="M -25 -12.5 L -12.5 -25 M 12.5 -25 L 25 -12.5 M 25 12.5 L 12.5 25 M -12.5 25 L -25 12.5" />
		</g>
		<g id="r16">
			<use xlink:href="#r01" x="0" y="0" />
			<path d="M 0 -25 L 25 0 L 0 25 L -25 0 z" />
		</g>
		<g id="r17">
			<use xlink:href="#r01" x="0" y="0" />
			<path d="M -25 0 L -12.5 -25 M -25 0 L -12.5 25 M 25 0 L 12.5 -25 M 25 0 L 12.5 25" />
		</g>
		<g id="r18">
			<use xlink:href="#r01" x="0" y="0" />
			<path d="M -25 -25 L -12.5 0 L -25 25 M 25 -25 L 12.5 0 L 25 25" />
		</g>
		<g id="r19">
			<use xlink:href="#r01" x="0" y="0" />
			<path d="M -25 0 L 0 25 L 25 0" />
			<path d="M -25 -25 A 25 25 180 1 0 25 -25" />
		</g>
		<g id="r20">
			<use xlink:href="#r01" x="0" y="0" />
			<path d="M -12.5 -25 L 0 0 L 12.5 -25" />
			<path d="M -25 25 A 25 25 180 1 1 25 25" />
		</g>
		<g id="r21">
			<use xlink:href="#r01" x="0" y="0" />
			<path d="M -25 -25 L 0 25 L 25 -25" />
			<path d="M -12.5 -25 L 0 0 L 12.5 -25" />
		</g>
		<g id="r22">
			<use xlink:href="#r01" x="0" y="0" />
			<path d="M -12.5 -25 L 0 0 L 12.5 -25" />
			<path d="M -12.5 -25 V 25 M 12.5 -25 V 25" />
		</g>
		<g id="r23">
			<use xlink:href="#r01" x="0" y="0" />
			<path d="M -12.5 -25 V 25 M 12.5 -25 V 25" />
			<path d="M -25 -25 A 12.5 25 180 1 1 -25 25 M 25 -25 A 12.5 25 180 1 0 25 25" />
		</g>
		<g id="r24">
			<use xlink:href="#r01" x="0" y="0" />
			<path d="M -12.5 -25 L 0 0 L 12.5 -25" />
			<path d="M -25 -25 A 12.5 25 180 1 1 -25 25 M 25 -25 A 12.5 25 180 1 0 25 25" />
		</g>
		<g id="r25">
			<use xlink:href="#r01" x="0" y="0" />
			<path d="M -12.5 -25 V 25 M 12.5 -25 V 25" />
			<path d="M -25 -25 L -12.5 0 L -25 25 M 25 -25 L 12.5 0 L 25 25" />
		</g>
		<g id="r26">
			<use xlink:href="#r01" x="0" y="0" />
			<path d="M -12.5 -25 L 0 0 L 12.5 -25" />
			<path d="M -25 -25 L -12.5 0 L -25 25 M 25 -25 L 12.5 0 L 25 25" />
		</g>
		<g id="r27">
			<use xlink:href="#r01" x="0" y="0" />
			<path d="M -12.5 -25 L 0 0 L 12.5 -25" />
			<path d="M -25 -12.5 L -12.5 -25 M 12.5 -25 L 25 -12.5 M 25 12.5 L 12.5 25 M -12.5 25 L -25 12.5" />
		</g>
		<g id="r28">
			<use xlink:href="#r01" x="0" y="0" />
			<path d="M -12.5 -25 V 25 M 12.5 -25 V 25" />
			<path d="M -25 -12.5 L -12.5 -25 M 12.5 -25 L 25 -12.5 M 25 12.5 L 12.5 25 M -12.5 25 L -25 12.5" />
		</g>
		<g id="r29">
			<use xlink:href="#r01" x="0" y="0" />
			<path d="M 0 -25 L 25 0 L 0 25 L -25 0 z" />
			<path d="M -25 -12.5 L -12.5 -25 M 12.5 -25 L 25 -12.5 M 25 12.5 L 12.5 25 M -12.5 25 L -25 12.5" />
		</g>
		<g id="r30">
			<use xlink:href="#r01" x="0" y="0" />
			<path d="M -25 -12.5 L 25 12.5 M -25 12.5 L 25 -12.5" />
			<path d="M -25 -12.5 L -12.5 -25 M 12.5 -25 L 25 -12.5 M 25 12.5 L 12.5 25 M -12.5 25 L -25 12.5" />
		</g>
	</defs>
	
	<!-- Круглые -->
	<use xlink:href="#c01" x="45"   y="45" />
	<use xlink:href="#c02" x="115"  y="45" />
	<use xlink:href="#c03" x="185"  y="45" />
	<use xlink:href="#c04" x="255"  y="45" />
	<use xlink:href="#c05" x="325"  y="45" />
	<use xlink:href="#c06" x="395"  y="45" />
	
	<use xlink:href="#c07" x="465"  y="45" />
	<use xlink:href="#c08" x="535"  y="45" />
	<use xlink:href="#c09" x="605"  y="45" />
	<use xlink:href="#c10" x="675"  y="45" />
	<use xlink:href="#c11" x="745"  y="45" />
	<use xlink:href="#c12" x="815"  y="45" />
	
	<use xlink:href="#c13" x="885"  y="45" />
	<use xlink:href="#c14" x="955"  y="45" />
	<use xlink:href="#c15" x="1025" y="45" />
	<use xlink:href="#c16" x="1095" y="45" />
	<use xlink:href="#c17" x="1165" y="45" />
	<use xlink:href="#c18" x="1235" y="45" />
	
	<use xlink:href="#c19" x="1305" y="45" />
	<use xlink:href="#c20" x="1375" y="45" />
	<use xlink:href="#c21" x="1445" y="45" />
	<use xlink:href="#c22" x="1515" y="45" />
	<use xlink:href="#c23" x="1585" y="45" />
	<use xlink:href="#c24" x="1655" y="45" />
	
	<use xlink:href="#c25" x="1725" y="45" />
	<use xlink:href="#c26" x="1795" y="45" />
	<use xlink:href="#c27" x="1865" y="45" />
	<use xlink:href="#c28" x="1935" y="45" />
	<use xlink:href="#c29" x="2005" y="45" />
	<use xlink:href="#c30" x="2075" y="45" />
	
	<!-- Прямоугольные -->
	<use xlink:href="#r01" x="45"   y="115" />
	<use xlink:href="#r02" x="115"  y="115" />
	<use xlink:href="#r03" x="185"  y="115" />
	<use xlink:href="#r04" x="255"  y="115" />
	<use xlink:href="#r05" x="325"  y="115" />
	<use xlink:href="#r06" x="395"  y="115" />
	
	<use xlink:href="#r07" x="465"  y="115" />
	<use xlink:href="#r08" x="535"  y="115" />
	<use xlink:href="#r09" x="605"  y="115" />
	<use xlink:href="#r10" x="675"  y="115" />
	<use xlink:href="#r11" x="745"  y="115" />
	<use xlink:href="#r12" x="815"  y="115" />
	
	<use xlink:href="#r13" x="885"  y="115" />
	<use xlink:href="#r14" x="955"  y="115" />
	<use xlink:href="#r15" x="1025" y="115" />
	<use xlink:href="#r16" x="1095" y="115" />
	<use xlink:href="#r17" x="1165" y="115" />
	<use xlink:href="#r18" x="1235" y="115" />
	
	<use xlink:href="#r19" x="1305" y="115" />
	<use xlink:href="#r20" x="1375" y="115" />
	<use xlink:href="#r21" x="1445" y="115" />
	<use xlink:href="#r22" x="1515" y="115" />
	<use xlink:href="#r23" x="1585" y="115" />
	<use xlink:href="#r24" x="1655" y="115" />
	
	<use xlink:href="#r25" x="1725" y="115" />
	<use xlink:href="#r26" x="1795" y="115" />
	<use xlink:href="#r27" x="1865" y="115" />
	<use xlink:href="#r28" x="1935" y="115" />
	<use xlink:href="#r29" x="2005" y="115" />
	<use xlink:href="#r30" x="2075" y="115" />
	
</svg>